<svg width="48" height="48" viewBox="0 0 48 48" fill="none" xmlns="http://www.w3.org/2000/svg">
<path d="M11.84 45.28H16C16.7467 45.28 17.2533 44.96 17.52 44.32C17.7867 43.68 17.7867 43.04 17.52 42.4C17.2533 41.76 16.7467 41.44 16 41.44H11.84C10.9867 41.44 10.4267 41.76 10.16 42.4C9.89333 43.04 9.89333 43.68 10.16 44.32C10.4267 44.96 10.9867 45.28 11.84 45.28ZM11.84 42.88H16C16.2133 42.88 16.32 43.04 16.32 43.36C16.32 43.68 16.2133 43.84 16 43.84H11.84C11.52 43.84 11.36 43.68 11.36 43.36C11.36 43.04 11.52 42.88 11.84 42.88ZM16.96 24.16L12.32 28.8L10.72 27.2C10.5067 26.9867 10.2933 26.9067 10.08 26.96C9.86667 27.0133 9.70667 27.1733 9.6 27.44C9.49333 27.7067 9.54667 27.9467 9.76 28.16L11.84 30.24C12.16 30.56 12.48 30.56 12.8 30.24L17.92 25.12C18.1333 24.9067 18.1867 24.6933 18.08 24.48C17.9733 24.2667 17.8133 24.1067 17.6 24C17.3867 23.8933 17.1733 23.9467 16.96 24.16ZM47.52 31.04C47.2 30.6133 46.9867 30.08 46.88 29.44C46.1333 26.56 45.0667 23.7867 43.68 21.12L41.44 16.8C41.0133 15.9467 40.3733 15.4133 39.52 15.2C38.6667 14.9867 37.8667 15.0933 37.12 15.52C36.3733 15.9467 35.8933 16.5867 35.68 17.44C34.8267 17.12 33.9733 17.1733 33.12 17.6C32.2667 18.0267 31.7333 18.6667 31.52 19.52C30.7733 19.3067 30.0533 19.3333 29.36 19.6C28.6667 19.8667 28.1067 20.32 27.68 20.96V2.72C27.68 1.97334 27.4133 1.33334 26.88 0.799999C26.3467 0.266666 25.7067 0 24.96 0H8.64C8.32 0 8.10667 0.106667 8 0.32C7.89333 0.533333 7.89333 0.773335 8 1.04C8.10667 1.30667 8.32 1.44 8.64 1.44H24.96C25.3867 1.44 25.7067 1.57333 25.92 1.84C26.1333 2.10667 26.24 2.4 26.24 2.72V4.8H1.44V2.72C1.44 2.4 1.57333 2.10667 1.84 1.84C2.10667 1.57333 2.4 1.44 2.72 1.44H4.64C4.96 1.44 5.17333 1.30667 5.28 1.04C5.38667 0.773335 5.38667 0.533333 5.28 0.32C5.17333 0.106667 4.96 0 4.64 0H2.72C1.97333 0 1.33333 0.266666 0.8 0.799999C0.266667 1.33334 0 1.97334 0 2.72V45.28C0 46.0267 0.266667 46.6667 0.8 47.2C1.33333 47.7333 1.97333 48 2.72 48H24.96C25.7067 48 26.3467 47.7333 26.88 47.2C27.4133 46.6667 27.68 46.0267 27.68 45.28V36.64L30.24 37.76C30.88 38.08 31.36 38.56 31.68 39.2C32.2133 40.3733 33.0933 41.1733 34.32 41.6C35.5467 42.0267 36.7467 41.92 37.92 41.28L42.08 39.04C42.2933 38.9333 42.4 38.7467 42.4 38.48C42.4 38.2133 42.2933 38 42.08 37.84C41.8667 37.68 41.6533 37.7067 41.44 37.92L37.28 40C36.4267 40.4267 35.5733 40.5067 34.72 40.24C33.8667 39.9733 33.2267 39.4133 32.8 38.56C32.3733 37.7067 31.7333 37.0667 30.88 36.64L20.16 31.36C19.52 31.04 19.2 30.56 19.2 29.92C19.2 29.28 19.44 28.7467 19.92 28.32C20.4 27.8933 20.96 27.84 21.6 28.16L25.6 30.08C25.8133 30.2933 26.0533 30.2667 26.32 30C26.5867 29.7333 26.6667 29.4933 26.56 29.28L19.84 16.32C19.4133 15.68 19.3867 15.0667 19.76 14.48C20.1333 13.8933 20.64 13.5733 21.28 13.52C21.92 13.4667 22.4 13.8133 22.72 14.56L28.8 25.92C28.9067 26.24 29.0933 26.4 29.36 26.4C29.6267 26.4 29.84 26.2933 30 26.08C30.16 25.8667 30.1333 25.6 29.92 25.28L28.8 23.04C28.5867 22.5067 28.64 22.0267 28.96 21.6C29.28 21.1733 29.7067 20.9067 30.24 20.8C30.7733 20.6933 31.2 20.8533 31.52 21.28L32.96 23.84C33.0667 24.0533 33.2533 24.16 33.52 24.16C33.7867 24.16 34 24.0533 34.16 23.84C34.32 23.6267 34.3467 23.4133 34.24 23.2L32.8 20.48C32.8 19.7333 33.1467 19.1733 33.84 18.8C34.5333 18.4267 35.1467 18.5067 35.68 19.04L37.12 21.6C37.2267 21.8133 37.4133 21.92 37.68 21.92C37.9467 21.92 38.16 21.8133 38.32 21.6C38.48 21.3867 38.4533 21.1733 38.24 20.96L36.96 18.4C36.8533 17.76 37.0133 17.28 37.44 16.96C37.8667 16.64 38.3733 16.5067 38.96 16.56C39.5467 16.6133 39.9467 16.9067 40.16 17.44L42.56 21.76C43.84 24.32 44.8 26.9867 45.44 29.76C45.6533 30.4 45.9467 31.0933 46.32 31.84C46.6933 32.5867 46.7467 33.36 46.48 34.16C46.2133 34.96 45.7067 35.5733 44.96 36C44.64 36.1067 44.48 36.2933 44.48 36.56C44.48 36.8267 44.5867 37.04 44.8 37.2C45.0133 37.36 45.28 37.3867 45.6 37.28C46.6667 36.7467 47.3867 35.8667 47.76 34.64C48.1333 33.4133 48.0533 32.2133 47.52 31.04ZM26.24 45.28C26.24 45.6 26.1333 45.8933 25.92 46.16C25.7067 46.4267 25.3867 46.56 24.96 46.56H2.72C2.4 46.56 2.10667 46.4267 1.84 46.16C1.57333 45.8933 1.44 45.6 1.44 45.28V40.16H26.24V45.28ZM18.08 28.32C17.8667 28.8533 17.7867 29.3867 17.84 29.92C17.8933 30.4533 18.0267 30.9867 18.24 31.52C17.0667 32.8 15.6267 33.44 13.92 33.44C12.2133 33.44 10.7467 32.8267 9.52 31.6C8.29333 30.3733 7.68 28.9067 7.68 27.2C7.68 25.4933 8.29333 24.0267 9.52 22.8C10.7467 21.5733 12.1867 20.96 13.84 20.96C15.4933 20.96 16.9067 21.52 18.08 22.64C19.2533 23.76 19.8933 25.12 20 26.72C19.1467 26.9333 18.5067 27.4667 18.08 28.32ZM23.2 12.96C22.88 12.64 22.5067 12.4267 22.08 12.32C21.44 12.1067 20.7733 12.16 20.08 12.48C19.3867 12.8 18.8533 13.28 18.48 13.92C18.1067 14.56 17.9733 15.2533 18.08 16H4.8C4.58667 16 4.48 15.9467 4.48 15.84V10.72C4.48 10.6133 4.58667 10.56 4.8 10.56H22.88C23.0933 10.56 23.2 10.6133 23.2 10.72V12.96ZM26.24 18.24L24.64 15.04V10.72C24.64 10.2933 24.48 9.92 24.16 9.6C23.84 9.28 23.4133 9.12 22.88 9.12H4.8C4.37333 9.12 4 9.28 3.68 9.6C3.36 9.92 3.2 10.2933 3.2 10.72V15.84C3.2 16.2667 3.36 16.64 3.68 16.96C4 17.28 4.37333 17.44 4.8 17.44H18.72L24.16 27.84L22.24 26.88C22.0267 26.7733 21.76 26.6667 21.44 26.56C21.2267 24.64 20.4 23.0133 18.96 21.68C17.52 20.3467 15.7867 19.68 13.76 19.68C11.7333 19.68 9.97333 20.4 8.48 21.84C6.98667 23.28 6.24 25.0667 6.24 27.2C6.24 29.3333 6.98667 31.12 8.48 32.56C9.97333 34 11.7867 34.72 13.92 34.72C16.0533 34.72 17.8667 33.9733 19.36 32.48C20.32 33.0133 21.8667 33.76 24 34.72L26.24 35.84V38.72H1.44V6.24H26.24V18.24Z" fill="white"/>
</svg>
