<svg width="7" height="10" viewBox="0 0 7 10" fill="none" xmlns="http://www.w3.org/2000/svg">
<path d="M6.14282 5.46324L1.9447 9.66136C1.80065 9.80541 1.62573 9.87744 1.41994 9.87744C1.21415 9.87744 1.03923 9.80541 0.895172 9.66136L0.216064 8.95139C0.0720113 8.80733 -1.52588e-05 8.63241 -1.52588e-05 8.42662C-1.52588e-05 8.22083 0.0720113 8.04591 0.216064 7.90186L3.17944 4.93848L0.216064 1.9751C0.0720113 1.83104 -1.52588e-05 1.65612 -1.52588e-05 1.45033C-1.52588e-05 1.24454 0.0720113 1.06962 0.216064 0.925568L0.895172 0.215591C1.03923 0.0715383 1.21415 -0.000488281 1.41994 -0.000488281C1.62573 -0.000488281 1.80065 0.0715383 1.9447 0.215591L6.14282 4.41371C6.28688 4.55776 6.3589 4.73269 6.3589 4.93848C6.3589 5.14427 6.28688 5.31919 6.14282 5.46324Z" fill="white"/>
<a href="https://www.figma.com/design/Nx4sNsAeWJfmVVOXuDSmxJ/Untitled?node-id=2-828">
<rect fill="black" fill-opacity="0" y="0.597656" width="7.90234" height="15.8047"/>
</a>
</svg>
