<svg width="43" height="48" viewBox="0 0 43 48" fill="none" xmlns="http://www.w3.org/2000/svg">
<path d="M41.2716 19.36H9.27158L39.9916 10.4C40.3116 10.4 40.5249 10.2933 40.6316 10.08C40.7382 9.86667 40.7382 9.6 40.6316 9.28L39.0316 3.84C38.7116 2.66667 38.0982 1.73333 37.1916 1.04C36.2849 0.346668 35.2449 0 34.0716 0C33.5382 0 33.0582 0.0533333 32.6316 0.16L3.83158 8.64C2.44491 8.96 1.40491 9.76 0.711579 11.04C0.0182456 12.32 -0.168421 13.6533 0.151579 15.04L1.75158 20.48V42.72C1.75158 44.2133 2.25825 45.4667 3.27158 46.48C4.28491 47.4933 5.53825 48 7.03158 48H18.2316C18.5516 48 18.7916 47.92 18.9516 47.76C19.1116 47.6 19.1916 47.3867 19.1916 47.12C19.1916 46.8533 19.1116 46.6133 18.9516 46.4C18.7916 46.1867 18.5516 46.08 18.2316 46.08H7.03158C6.07158 46.08 5.27158 45.76 4.63158 45.12C3.99158 44.48 3.67158 43.68 3.67158 42.72V30.08H40.3116V42.72C40.3116 43.68 39.9916 44.48 39.3516 45.12C38.7116 45.76 37.9649 46.08 37.1116 46.08H25.7516C25.5382 46.08 25.3249 46.1867 25.1116 46.4C24.8982 46.6133 24.7916 46.8533 24.7916 47.12C24.7916 47.3867 24.8982 47.6 25.1116 47.76C25.3249 47.92 25.5382 48 25.7516 48H37.1116C38.4982 48 39.6982 47.4933 40.7116 46.48C41.7249 45.4667 42.2316 44.2133 42.2316 42.72V20.32C42.2316 20.1067 42.1516 19.8933 41.9916 19.68C41.8316 19.4667 41.5916 19.36 41.2716 19.36ZM24.7916 28.16L28.7916 21.28H33.9116L29.9116 28.16H24.7916ZM17.4316 28.16L21.4316 21.28H26.5516L22.5516 28.16H17.4316ZM10.0716 28.16L14.0716 21.28H19.1916L15.3516 28.16H10.0716ZM13.5916 16L6.87158 9.6L11.9916 8.16L18.7116 14.72L13.7516 16.16L13.5916 16ZM26.0716 4.16L32.7916 10.56L27.8316 12L20.9516 5.44L26.0716 4V4.16ZM19.0316 6.24L25.7516 12.64L20.7916 14.08L13.9116 7.52L19.0316 6.08V6.24ZM33.1116 2.08C33.4316 1.97334 33.7516 1.92 34.0716 1.92C34.8182 1.92 35.4849 2.13334 36.0716 2.56C36.6582 2.98667 37.0582 3.57333 37.2716 4.32L38.7116 8.96L34.8716 10.08L28.1516 3.52L33.1116 2.08ZM2.39158 12C2.81825 11.1467 3.45825 10.6133 4.31158 10.4L4.79158 10.24L11.6716 16.8L3.35158 19.2L2.07158 14.56C1.75158 13.6 1.85825 12.7467 2.39158 12ZM3.67158 21.28H11.9916L7.99158 28.16H3.67158V21.28ZM32.1516 28.16L36.1516 21.28H40.3116V28.16H32.1516ZM28.4716 37.92C28.4716 37.6 28.3116 37.3333 27.9916 37.12L19.8316 32.48C19.5116 32.2667 19.1916 32.24 18.8716 32.4C18.5516 32.56 18.3916 32.8533 18.3916 33.28V42.72C18.3916 43.04 18.4982 43.28 18.7116 43.44C18.9249 43.6 19.1116 43.68 19.2716 43.68C19.4316 43.68 19.6182 43.6267 19.8316 43.52L27.9916 38.72C28.3116 38.6133 28.4716 38.3467 28.4716 37.92ZM20.3116 41.12V34.88L25.7516 37.92L20.3116 41.12ZM22.0716 46.08C21.7516 46.08 21.5116 46.1867 21.3516 46.4C21.1916 46.6133 21.1116 46.8533 21.1116 47.12C21.1116 47.3867 21.1916 47.6 21.3516 47.76C21.5116 47.92 21.7249 48 21.9916 48C22.2582 48 22.4982 47.92 22.7116 47.76C22.9249 47.6 23.0316 47.3867 23.0316 47.12C23.0316 46.8533 22.9249 46.6133 22.7116 46.4C22.4982 46.1867 22.2849 46.08 22.0716 46.08Z" fill="white"/>
</svg>
