<svg width="44" height="46" viewBox="0 0 44 46" fill="none" xmlns="http://www.w3.org/2000/svg">
<path d="M42.72 40.4801H42.08C42.1867 38.3468 41.92 36.4801 41.28 34.8801V31.8401C41.28 30.4535 40.9067 29.2268 40.16 28.1601L35.84 21.4401C35.3067 20.5868 34.64 19.8935 33.84 19.3601C33.04 18.8268 32.16 18.5068 31.2 18.4001L24.8 17.4401V16.4801C25.6533 16.2668 26.3467 15.8135 26.88 15.1201C27.4133 14.4268 27.68 13.6535 27.68 12.8001V3.84012C27.68 2.77345 27.3333 1.86678 26.64 1.12012C25.9467 0.373451 25.0667 0.000118256 24 0.000118256H13.44C13.2267 0.000118256 13.0667 0.0801201 12.96 0.24012C12.8533 0.40012 12.8 0.586784 12.8 0.800117V3.84012C12.8 4.69345 13.0667 5.46679 13.6 6.16012C14.1333 6.85345 14.8267 7.30679 15.68 7.52012V12.8001C15.7867 13.6535 16.1067 14.4268 16.64 15.1201C17.1733 15.8135 17.8667 16.2668 18.72 16.4801V17.4401L16.8 17.7601C16.6933 17.1201 16.3733 16.6668 15.84 16.4001C15.3067 16.1335 14.7733 16.0535 14.24 16.1601L13.44 16.3201C12.9067 16.4268 12.4533 16.6935 12.08 17.1201C11.7067 17.5468 11.52 18.0268 11.52 18.5601C9.92 18.9868 8.64 19.9468 7.68 21.4401L3.36 28.1601C2.61333 29.2268 2.24 30.4535 2.24 31.8401V34.8801C1.6 36.4801 1.33333 38.4001 1.44 40.6401H0.8C0.586667 40.6401 0.4 40.6935 0.24 40.8001C0.08 40.9068 0 41.0668 0 41.2801V44.3201C0 44.5335 0.08 44.7201 0.24 44.8801C0.4 45.0401 0.586667 45.1201 0.8 45.1201H42.72C42.9333 45.1201 43.12 45.0401 43.28 44.8801C43.44 44.7201 43.52 44.5335 43.52 44.3201V41.2801C43.52 41.0668 43.44 40.8801 43.28 40.7201C43.12 40.5601 42.9333 40.4801 42.72 40.4801ZM23.2 40.4801C25.3333 37.9201 28.5333 36.1601 32.8 35.2001C34.9333 34.7735 37.12 34.5601 39.36 34.5601C39.7867 35.2001 40.1067 35.9468 40.32 36.8001C38.2933 36.9068 36.32 37.1735 34.4 37.6001C34.08 37.7068 33.8667 37.8935 33.76 38.1601C33.6533 38.4268 33.7067 38.6668 33.92 38.8801C34.1333 39.0935 34.4 39.1468 34.72 39.0401C36.64 38.6135 38.56 38.3468 40.48 38.2401C40.5867 38.9868 40.64 39.7335 40.64 40.4801H23.2ZM34.56 22.2401L38.88 28.9601C39.52 29.8135 39.7867 30.7735 39.68 31.8401V33.1201C38.1867 33.0135 36.6933 33.0668 35.2 33.2801V31.5201C35.2 31.4135 35.2 31.3068 35.2 31.2001L31.36 25.9201C31.1467 25.7068 30.9067 25.6001 30.64 25.6001C30.3733 25.6001 30.1867 25.7335 30.08 26.0001C29.9733 26.2668 29.9733 26.5068 30.08 26.7201L33.76 31.8401V33.4401L32.64 33.7601C27.7333 34.8268 24.1067 36.9068 21.76 40.0001C20.6933 38.4001 19.2533 37.0668 17.44 36.0001H18.72C19.36 36.0001 19.8933 35.7868 20.32 35.3601C20.7467 34.9335 20.96 34.4001 20.96 33.7601V30.8801C20.96 30.3468 20.8267 29.8668 20.56 29.4401C20.2933 29.0135 19.8933 28.7468 19.36 28.6401L17.12 19.2001L18.72 18.8801C18.8267 19.5201 19.0933 20.0535 19.52 20.4801C19.9467 20.9068 20.4267 21.1201 20.96 21.1201H22.56C23.0933 21.1201 23.5733 20.9068 24 20.4801C24.4267 20.0535 24.6933 19.5201 24.8 18.8801L31.04 19.8401C32.5333 20.1601 33.7067 20.9601 34.56 22.2401ZM17.76 28.4801H15.52L13.92 22.0801L16.16 21.6001L17.76 28.4801ZM15.04 30.0801H18.72C18.9333 30.0801 19.12 30.1601 19.28 30.3201C19.44 30.4801 19.52 30.6668 19.52 30.8801V33.7601C19.52 33.9735 19.44 34.1601 19.28 34.3201C19.12 34.4801 18.9333 34.5601 18.72 34.5601H15.04V30.0801ZM23.2 16.4801V18.8801C23.2 19.0935 23.1467 19.2535 23.04 19.3601C22.9333 19.4668 22.7733 19.5201 22.56 19.5201H20.96C20.7467 19.5201 20.5867 19.4668 20.48 19.3601C20.3733 19.2535 20.32 19.0935 20.32 18.8801V16.4801H23.2ZM14.24 3.84012V1.60012H24C24.64 1.60012 25.1733 1.81345 25.6 2.24012C26.0267 2.66679 26.24 3.20012 26.24 3.84012V6.08012H16.48C15.84 6.08012 15.3067 5.86678 14.88 5.44012C14.4533 5.01345 14.24 4.48012 14.24 3.84012ZM17.28 12.8001V7.52012H26.24V12.8001C26.24 13.4401 26.0267 13.9735 25.6 14.4001C25.1733 14.8268 24.64 15.0401 24 15.0401H19.52C18.88 15.0401 18.3467 14.8268 17.92 14.4001C17.4933 13.9735 17.28 13.4401 17.28 12.8001ZM13.28 18.0801C13.3867 17.8668 13.5467 17.7601 13.76 17.7601L14.56 17.6001C14.6667 17.4935 14.8267 17.5201 15.04 17.6801C15.2533 17.8401 15.36 17.9735 15.36 18.0801L15.84 20.1601L13.6 20.6401L13.12 18.7201C13.0133 18.5068 13.0667 18.2935 13.28 18.0801ZM4.64 28.9601L8.96 22.2401C9.70667 21.1735 10.6667 20.4268 11.84 20.0001L14.08 28.4801H11.2L11.84 27.5201C12.0533 27.2001 12.08 26.9335 11.92 26.7201C11.76 26.5068 11.5467 26.3735 11.28 26.3201C11.0133 26.2668 10.7733 26.4001 10.56 26.7201L9.12 28.9601C9.01333 29.1735 9.01333 29.4135 9.12 29.6801C9.22667 29.9468 9.44 30.0801 9.76 30.0801H13.44V34.4001C12.8 34.0801 12.0533 33.8668 11.2 33.7601C8.74667 33.2268 6.29333 33.0135 3.84 33.1201V31.8401C3.73333 30.7735 4 29.8135 4.64 28.9601ZM3.04 38.2401C4.96 38.3468 6.88 38.6135 8.8 39.0401C9.12 39.1468 9.38667 39.0935 9.6 38.8801C9.81333 38.6668 9.86667 38.4268 9.76 38.1601C9.65333 37.8935 9.44 37.7068 9.12 37.6001C7.2 37.1735 5.22667 36.9068 3.2 36.8001C3.41333 35.9468 3.73333 35.2001 4.16 34.5601C6.4 34.5601 8.64 34.7735 10.88 35.2001C15.2533 36.1601 18.4 37.9201 20.32 40.4801H2.88C2.88 39.7335 2.93333 38.9868 3.04 38.2401ZM42.08 43.5201H1.44V42.0801H42.08V43.5201Z" fill="white"/>
</svg>
