<svg width="25" height="19" viewBox="0 0 25 19" fill="none" xmlns="http://www.w3.org/2000/svg">
<path d="M24.5116 6.20117C24.6093 6.10352 24.7069 6.08724 24.8046 6.15234C24.9348 6.21745 24.9999 6.3151 24.9999 6.44531V16.4062C24.9999 17.0573 24.772 17.6107 24.3163 18.0664C23.8606 18.5221 23.3072 18.75 22.6562 18.75H2.34365C1.69261 18.75 1.13923 18.5221 0.683496 18.0664C0.227767 17.6107 -9.72748e-05 17.0573 -9.72748e-05 16.4062V6.44531C-9.72748e-05 6.3151 0.0487309 6.23372 0.146387 6.20117C0.276595 6.13607 0.390528 6.13607 0.488184 6.20117C1.5624 7.01497 4.06891 8.85417 8.00772 11.7188C8.07282 11.7839 8.28441 11.9629 8.64248 12.2559C9.03311 12.5488 9.34235 12.7767 9.57022 12.9395C9.79808 13.0697 10.091 13.2487 10.4491 13.4766C10.8072 13.6719 11.149 13.8184 11.4745 13.916C11.8326 14.0137 12.1744 14.0625 12.4999 14.0625C12.7929 14.0625 13.0858 14.0299 13.3788 13.9648C13.6718 13.8672 13.9485 13.7695 14.2089 13.6719C14.4693 13.5417 14.746 13.3789 15.039 13.1836C15.3319 12.9883 15.5761 12.8255 15.7714 12.6953C15.9667 12.5326 16.1946 12.3535 16.455 12.1582C16.7154 11.9629 16.8944 11.8164 16.9921 11.7188C20.8332 8.95182 23.3397 7.11263 24.5116 6.20117ZM12.4999 12.5C12.2395 12.5 11.914 12.4186 11.5233 12.2559C11.1653 12.0605 10.8723 11.8978 10.6444 11.7676C10.4166 11.6048 10.0748 11.3607 9.61904 11.0352C9.19587 10.6771 8.968 10.498 8.93545 10.498C4.9641 7.60091 2.13206 5.5013 0.439356 4.19922C0.146387 3.97135 -9.72748e-05 3.66211 -9.72748e-05 3.27148V2.34375C-9.72748e-05 1.69271 0.227767 1.13932 0.683496 0.683594C1.13923 0.227865 1.69261 0 2.34365 0H22.6562C23.3072 0 23.8606 0.227865 24.3163 0.683594C24.772 1.13932 24.9999 1.69271 24.9999 2.34375V3.27148C24.9999 3.66211 24.8534 3.97135 24.5604 4.19922C22.9654 5.4362 20.1334 7.53581 16.0644 10.498C16.0318 10.498 15.7877 10.6771 15.3319 11.0352C14.9088 11.3607 14.5832 11.6048 14.3554 11.7676C14.1275 11.8978 13.8183 12.0605 13.4276 12.2559C13.0696 12.4186 12.7603 12.5 12.4999 12.5Z" fill="white"/>
</svg>
