<svg width="26" height="26" viewBox="0 0 26 26" fill="none" xmlns="http://www.w3.org/2000/svg">
<path d="M24.1992 24.2887C24.0798 24.9094 23.7109 25.2251 23.0925 25.2359C16.8434 25.345 11.4671 23.225 6.9634 18.8758C2.45973 14.5267 0.153352 9.22759 0.044275 2.97854C0.0334809 2.36014 0.336145 1.98045 0.952268 1.83947L6.00917 0.579149C6.62472 0.405619 7.06809 0.62578 7.33926 1.23963L9.7781 6.66665C10.015 7.18342 9.90905 7.64107 9.46021 8.03959L6.57273 10.4829C7.48502 12.3879 8.70253 14.0596 10.2253 15.4981C11.7486 16.9691 13.4618 18.1275 15.3648 18.9734L17.7547 16.0015C18.1048 15.5396 18.5585 15.4177 19.1157 15.6359L24.6246 17.8839C25.215 18.134 25.4342 18.5697 25.2822 19.1909L24.1992 24.2887Z" fill="white"/>
</svg>
