<svg width="46" height="32" viewBox="0 0 46 32" fill="none" xmlns="http://www.w3.org/2000/svg">
<rect width="45.55" height="24" fill="#2FC7A1"/>
<path d="M11.5468 6.5C12.2935 6.5 12.9141 6.63067 13.4088 6.892C13.9128 7.15333 14.3095 7.51267 14.5988 7.97C14.8975 8.418 15.1075 8.936 15.2288 9.524C15.3595 10.112 15.4248 10.728 15.4248 11.372V12.044C15.4248 13.6587 15.0235 14.9047 14.2208 15.782C13.4181 16.65 12.2561 17.084 10.7348 17.084C10.3708 17.084 10.0628 17.0747 9.8108 17.056C9.5588 17.0373 9.28346 17.0093 8.9848 16.972V15.824C9.2928 15.8613 9.57746 15.8893 9.8388 15.908C10.1001 15.9267 10.4175 15.936 10.7908 15.936C11.6401 15.936 12.3121 15.7773 12.8068 15.46C13.3015 15.1427 13.6561 14.69 13.8708 14.102C14.0855 13.5047 14.1928 12.786 14.1928 11.946V11.316L14.5288 10.07C14.5195 10.8073 14.3748 11.4187 14.0948 11.904C13.8241 12.3893 13.4461 12.7533 12.9608 12.996C12.4848 13.2387 11.9341 13.36 11.3088 13.36C10.5808 13.36 9.9648 13.2153 9.4608 12.926C8.9568 12.6273 8.57413 12.2213 8.3128 11.708C8.0608 11.1947 7.9348 10.6113 7.9348 9.958C7.9348 9.29533 8.07013 8.70267 8.3408 8.18C8.61146 7.65733 9.0128 7.24667 9.5448 6.948C10.0861 6.64933 10.7535 6.5 11.5468 6.5ZM11.5468 7.676C11.0335 7.676 10.6041 7.774 10.2588 7.97C9.91346 8.166 9.65213 8.43667 9.4748 8.782C9.3068 9.118 9.2228 9.51 9.2228 9.958C9.2228 10.406 9.3068 10.8027 9.4748 11.148C9.6428 11.4933 9.89013 11.764 10.2168 11.96C10.5528 12.1467 10.9635 12.24 11.4488 12.24C11.9248 12.24 12.3495 12.1513 12.7228 11.974C13.1055 11.7967 13.4041 11.54 13.6188 11.204C13.8335 10.8587 13.9408 10.4387 13.9408 9.944C13.9408 9.53333 13.8568 9.15533 13.6888 8.81C13.5208 8.46467 13.2595 8.18933 12.9048 7.984C12.5501 7.77867 12.0975 7.676 11.5468 7.676ZM21.6433 17.252C20.878 17.252 20.2246 17.1213 19.6833 16.86C19.1513 16.5893 18.7173 16.2253 18.3813 15.768C18.0546 15.3107 17.8166 14.7833 17.6673 14.186C17.518 13.5793 17.4433 12.94 17.4433 12.268V11.512C17.4433 10.5693 17.588 9.72 17.8773 8.964C18.176 8.208 18.6333 7.61067 19.2493 7.172C19.8746 6.724 20.6726 6.5 21.6433 6.5C22.614 6.5 23.4073 6.724 24.0233 7.172C24.6393 7.61067 25.092 8.208 25.3813 8.964C25.68 9.72 25.8293 10.5693 25.8293 11.512V12.268C25.8293 12.94 25.7546 13.5793 25.6053 14.186C25.456 14.7833 25.2133 15.3107 24.8773 15.768C24.5506 16.2253 24.1213 16.5893 23.5893 16.86C23.0573 17.1213 22.4086 17.252 21.6433 17.252ZM21.6433 16.02C22.614 16.02 23.3233 15.6933 23.7713 15.04C24.2286 14.3773 24.4573 13.332 24.4573 11.904C24.4573 10.4107 24.224 9.342 23.7573 8.698C23.3 8.054 22.5953 7.732 21.6433 7.732C20.682 7.732 19.968 8.054 19.5013 8.698C19.044 9.342 18.8153 10.4013 18.8153 11.876C18.8153 13.3133 19.044 14.3633 19.5013 15.026C19.9586 15.6887 20.6726 16.02 21.6433 16.02ZM30.3536 17L34.2176 6.78H35.2816L31.4176 17H30.3536ZM29.5976 12.268C29.0656 12.268 28.6316 12.1467 28.2956 11.904C27.9689 11.6613 27.7263 11.3393 27.5676 10.938C27.4183 10.5367 27.3436 10.1027 27.3436 9.636V9.272C27.3436 8.768 27.4229 8.32 27.5816 7.928C27.7403 7.52667 27.9876 7.214 28.3236 6.99C28.6596 6.75667 29.0843 6.64 29.5976 6.64C30.1203 6.64 30.5449 6.75667 30.8716 6.99C31.2076 7.214 31.4549 7.52667 31.6136 7.928C31.7723 8.32 31.8516 8.768 31.8516 9.272V9.636C31.8516 10.1027 31.7723 10.5367 31.6136 10.938C31.4643 11.3393 31.2263 11.6613 30.8996 11.904C30.5729 12.1467 30.1389 12.268 29.5976 12.268ZM29.5976 11.344C30.0269 11.344 30.3443 11.19 30.5496 10.882C30.7643 10.5647 30.8716 10.0933 30.8716 9.468C30.8716 8.80533 30.7643 8.32467 30.5496 8.026C30.3349 7.718 30.0176 7.564 29.5976 7.564C29.1776 7.564 28.8603 7.718 28.6456 8.026C28.4309 8.32467 28.3236 8.80067 28.3236 9.454C28.3236 10.0793 28.4263 10.5507 28.6316 10.868C28.8463 11.1853 29.1683 11.344 29.5976 11.344ZM35.9816 17.14C35.4496 17.14 35.0156 17.0187 34.6796 16.776C34.3529 16.5333 34.1103 16.2113 33.9516 15.81C33.8023 15.4087 33.7276 14.9747 33.7276 14.508V14.144C33.7276 13.64 33.8069 13.192 33.9656 12.8C34.1243 12.3987 34.3716 12.086 34.7076 11.862C35.0436 11.6287 35.4683 11.512 35.9816 11.512C36.5043 11.512 36.9289 11.6287 37.2556 11.862C37.5916 12.086 37.8389 12.3987 37.9976 12.8C38.1563 13.192 38.2356 13.64 38.2356 14.144V14.508C38.2356 14.9747 38.1563 15.4087 37.9976 15.81C37.8483 16.2113 37.6103 16.5333 37.2836 16.776C36.9569 17.0187 36.5229 17.14 35.9816 17.14ZM35.9816 16.216C36.4109 16.216 36.7283 16.062 36.9336 15.754C37.1483 15.4367 37.2556 14.9653 37.2556 14.34C37.2556 13.6773 37.1483 13.1967 36.9336 12.898C36.7189 12.59 36.4016 12.436 35.9816 12.436C35.5616 12.436 35.2443 12.59 35.0296 12.898C34.8149 13.1967 34.7076 13.6727 34.7076 14.326C34.7076 14.9513 34.8103 15.4227 35.0156 15.74C35.2303 16.0573 35.5523 16.216 35.9816 16.216Z" fill="white"/>
<rect x="15.7002" y="24" width="9.9985" height="9.9985" transform="rotate(-45 15.7002 24)" fill="#2FC7A1"/>
</svg>
