<svg width="44" height="32" viewBox="0 0 44 32" fill="none" xmlns="http://www.w3.org/2000/svg">
<rect width="43.73" height="24" fill="#2FC7A1"/>
<path d="M12.0795 17.28C11.3328 17.28 10.7075 17.1493 10.2035 16.888C9.70879 16.6267 9.31212 16.272 9.01345 15.824C8.72412 15.3667 8.51412 14.844 8.38345 14.256C8.26212 13.668 8.20145 13.052 8.20145 12.408V11.736C8.20145 10.1213 8.60279 8.88 9.40545 8.012C10.2081 7.13467 11.3701 6.696 12.8915 6.696C13.2555 6.696 13.5635 6.70533 13.8155 6.724C14.0675 6.74267 14.3428 6.77067 14.6415 6.808V7.956C14.3335 7.91867 14.0488 7.89067 13.7875 7.872C13.5261 7.85333 13.2088 7.844 12.8355 7.844C11.9861 7.844 11.3141 8.00267 10.8195 8.32C10.3248 8.63733 9.97012 9.09467 9.75545 9.692C9.54079 10.28 9.43345 10.994 9.43345 11.834V12.464L9.09745 13.71C9.10679 12.9727 9.24679 12.3613 9.51745 11.876C9.79745 11.3907 10.1755 11.0267 10.6515 10.784C11.1368 10.5413 11.6921 10.42 12.3175 10.42C13.0455 10.42 13.6615 10.5693 14.1655 10.868C14.6695 11.1573 15.0475 11.5587 15.2995 12.072C15.5608 12.5853 15.6915 13.1687 15.6915 13.822C15.6915 14.4847 15.5561 15.0773 15.2855 15.6C15.0148 16.1227 14.6088 16.5333 14.0675 16.832C13.5355 17.1307 12.8728 17.28 12.0795 17.28ZM12.0795 16.104C12.5928 16.104 13.0221 16.006 13.3675 15.81C13.7128 15.614 13.9695 15.348 14.1375 15.012C14.3148 14.6667 14.4035 14.27 14.4035 13.822C14.4035 13.374 14.3195 12.9773 14.1515 12.632C13.9835 12.2867 13.7315 12.0207 13.3955 11.834C13.0688 11.638 12.6628 11.54 12.1775 11.54C11.7015 11.54 11.2721 11.6287 10.8895 11.806C10.5161 11.9833 10.2221 12.2447 10.0075 12.59C9.79279 12.926 9.68545 13.3413 9.68545 13.836C9.68545 14.2467 9.76945 14.6247 9.93745 14.97C10.1055 15.3153 10.3668 15.5907 10.7215 15.796C11.0761 16.0013 11.5288 16.104 12.0795 16.104ZM20.608 17.252C19.8426 17.252 19.194 17.1027 18.662 16.804C18.13 16.5053 17.724 16.1087 17.444 15.614C17.1733 15.1193 17.038 14.5827 17.038 14.004H18.354C18.354 14.6387 18.5546 15.1427 18.956 15.516C19.3666 15.8893 19.9173 16.076 20.608 16.076C21.0653 16.076 21.462 15.992 21.798 15.824C22.134 15.656 22.3953 15.418 22.582 15.11C22.7686 14.7927 22.862 14.424 22.862 14.004C22.862 13.3693 22.6566 12.856 22.246 12.464C21.8446 12.072 21.3033 11.876 20.622 11.876C20.3326 11.876 20.0806 11.9133 19.866 11.988C19.6606 12.0533 19.4786 12.1373 19.32 12.24L18.648 11.036L22.554 8.18L22.414 7.928H17.444V6.78H23.674V8.642L20.44 10.994L19.46 11.036C19.6186 10.98 19.7913 10.9333 19.978 10.896C20.174 10.8587 20.4026 10.84 20.664 10.84C21.4106 10.84 22.0453 10.98 22.568 11.26C23.0906 11.54 23.4873 11.9133 23.758 12.38C24.038 12.8467 24.178 13.3553 24.178 13.906V14.102C24.178 14.6433 24.038 15.1567 23.758 15.642C23.4873 16.118 23.086 16.5053 22.554 16.804C22.0313 17.1027 21.3826 17.252 20.608 17.252ZM28.5356 17L32.3996 6.78H33.4636L29.5996 17H28.5356ZM27.7796 12.268C27.2476 12.268 26.8136 12.1467 26.4776 11.904C26.1509 11.6613 25.9082 11.3393 25.7496 10.938C25.6002 10.5367 25.5256 10.1027 25.5256 9.636V9.272C25.5256 8.768 25.6049 8.32 25.7636 7.928C25.9222 7.52667 26.1696 7.214 26.5056 6.99C26.8416 6.75667 27.2662 6.64 27.7796 6.64C28.3022 6.64 28.7269 6.75667 29.0536 6.99C29.3896 7.214 29.6369 7.52667 29.7956 7.928C29.9542 8.32 30.0336 8.768 30.0336 9.272V9.636C30.0336 10.1027 29.9542 10.5367 29.7956 10.938C29.6462 11.3393 29.4082 11.6613 29.0816 11.904C28.7549 12.1467 28.3209 12.268 27.7796 12.268ZM27.7796 11.344C28.2089 11.344 28.5262 11.19 28.7316 10.882C28.9462 10.5647 29.0536 10.0933 29.0536 9.468C29.0536 8.80533 28.9462 8.32467 28.7316 8.026C28.5169 7.718 28.1996 7.564 27.7796 7.564C27.3596 7.564 27.0422 7.718 26.8276 8.026C26.6129 8.32467 26.5056 8.80067 26.5056 9.454C26.5056 10.0793 26.6082 10.5507 26.8136 10.868C27.0282 11.1853 27.3502 11.344 27.7796 11.344ZM34.1636 17.14C33.6316 17.14 33.1976 17.0187 32.8616 16.776C32.5349 16.5333 32.2922 16.2113 32.1336 15.81C31.9842 15.4087 31.9096 14.9747 31.9096 14.508V14.144C31.9096 13.64 31.9889 13.192 32.1476 12.8C32.3062 12.3987 32.5536 12.086 32.8896 11.862C33.2256 11.6287 33.6502 11.512 34.1636 11.512C34.6862 11.512 35.1109 11.6287 35.4376 11.862C35.7736 12.086 36.0209 12.3987 36.1796 12.8C36.3382 13.192 36.4176 13.64 36.4176 14.144V14.508C36.4176 14.9747 36.3382 15.4087 36.1796 15.81C36.0302 16.2113 35.7922 16.5333 35.4656 16.776C35.1389 17.0187 34.7049 17.14 34.1636 17.14ZM34.1636 16.216C34.5929 16.216 34.9102 16.062 35.1156 15.754C35.3302 15.4367 35.4376 14.9653 35.4376 14.34C35.4376 13.6773 35.3302 13.1967 35.1156 12.898C34.9009 12.59 34.5836 12.436 34.1636 12.436C33.7436 12.436 33.4262 12.59 33.2116 12.898C32.9969 13.1967 32.8896 13.6727 32.8896 14.326C32.8896 14.9513 32.9922 15.4227 33.1976 15.74C33.4122 16.0573 33.7342 16.216 34.1636 16.216Z" fill="white"/>
<rect x="14.79" y="24" width="9.9985" height="9.9985" transform="rotate(-45 14.79 24)" fill="#2FC7A1"/>
</svg>
