<svg width="43" height="32" viewBox="0 0 43 32" fill="none" xmlns="http://www.w3.org/2000/svg">
<rect width="42.67" height="24" fill="#2FC7A1"/>
<path d="M9.20934 17L13.5353 8.054L13.4513 7.928H7.86534V6.78H14.7253V8.404L10.6093 17H9.20934ZM7.86534 9.552V6.78H8.98534V9.552H7.86534ZM19.6564 17.252C18.8724 17.252 18.2097 17.0933 17.6684 16.776C17.1271 16.4493 16.7164 16.0247 16.4364 15.502C16.1564 14.9793 16.0164 14.424 16.0164 13.836H17.3324C17.3324 14.2653 17.4257 14.648 17.6124 14.984C17.8084 15.32 18.0791 15.586 18.4244 15.782C18.7697 15.978 19.1804 16.076 19.6564 16.076C20.1231 16.076 20.5291 15.9827 20.8744 15.796C21.2291 15.6 21.5044 15.334 21.7004 14.998C21.8964 14.6527 21.9944 14.2653 21.9944 13.836C21.9944 13.4067 21.8964 13.0193 21.7004 12.674C21.5137 12.3287 21.2431 12.0533 20.8884 11.848C20.5431 11.6427 20.1324 11.54 19.6564 11.54C19.3111 11.54 18.9611 11.6007 18.6064 11.722C18.2517 11.834 17.9671 11.9973 17.7524 12.212H16.5204L17.0384 6.78H22.4004V7.928H17.8224L18.1584 7.466L17.7664 11.428L17.4024 11.302C17.6731 11.0313 17.9997 10.8167 18.3824 10.658C18.7744 10.4993 19.2177 10.42 19.7124 10.42C20.4964 10.42 21.1544 10.5833 21.6864 10.91C22.2184 11.2273 22.6197 11.6427 22.8904 12.156C23.1704 12.66 23.3104 13.1873 23.3104 13.738V13.934C23.3104 14.4847 23.1704 15.0167 22.8904 15.53C22.6104 16.034 22.1951 16.4493 21.6444 16.776C21.1031 17.0933 20.4404 17.252 19.6564 17.252ZM27.4691 17L31.3331 6.78H32.3971L28.5331 17H27.4691ZM26.7131 12.268C26.1811 12.268 25.7471 12.1467 25.4111 11.904C25.0844 11.6613 24.8417 11.3393 24.6831 10.938C24.5337 10.5367 24.4591 10.1027 24.4591 9.636V9.272C24.4591 8.768 24.5384 8.32 24.6971 7.928C24.8557 7.52667 25.1031 7.214 25.4391 6.99C25.7751 6.75667 26.1997 6.64 26.7131 6.64C27.2357 6.64 27.6604 6.75667 27.9871 6.99C28.3231 7.214 28.5704 7.52667 28.7291 7.928C28.8877 8.32 28.9671 8.768 28.9671 9.272V9.636C28.9671 10.1027 28.8877 10.5367 28.7291 10.938C28.5797 11.3393 28.3417 11.6613 28.0151 11.904C27.6884 12.1467 27.2544 12.268 26.7131 12.268ZM26.7131 11.344C27.1424 11.344 27.4597 11.19 27.6651 10.882C27.8797 10.5647 27.9871 10.0933 27.9871 9.468C27.9871 8.80533 27.8797 8.32467 27.6651 8.026C27.4504 7.718 27.1331 7.564 26.7131 7.564C26.2931 7.564 25.9757 7.718 25.7611 8.026C25.5464 8.32467 25.4391 8.80067 25.4391 9.454C25.4391 10.0793 25.5417 10.5507 25.7471 10.868C25.9617 11.1853 26.2837 11.344 26.7131 11.344ZM33.0971 17.14C32.5651 17.14 32.1311 17.0187 31.7951 16.776C31.4684 16.5333 31.2257 16.2113 31.0671 15.81C30.9177 15.4087 30.8431 14.9747 30.8431 14.508V14.144C30.8431 13.64 30.9224 13.192 31.0811 12.8C31.2397 12.3987 31.4871 12.086 31.8231 11.862C32.1591 11.6287 32.5837 11.512 33.0971 11.512C33.6197 11.512 34.0444 11.6287 34.3711 11.862C34.7071 12.086 34.9544 12.3987 35.1131 12.8C35.2717 13.192 35.3511 13.64 35.3511 14.144V14.508C35.3511 14.9747 35.2717 15.4087 35.1131 15.81C34.9637 16.2113 34.7257 16.5333 34.3991 16.776C34.0724 17.0187 33.6384 17.14 33.0971 17.14ZM33.0971 16.216C33.5264 16.216 33.8437 16.062 34.0491 15.754C34.2637 15.4367 34.3711 14.9653 34.3711 14.34C34.3711 13.6773 34.2637 13.1967 34.0491 12.898C33.8344 12.59 33.5171 12.436 33.0971 12.436C32.6771 12.436 32.3597 12.59 32.1451 12.898C31.9304 13.1967 31.8231 13.6727 31.8231 14.326C31.8231 14.9513 31.9257 15.4227 32.1311 15.74C32.3457 16.0573 32.6677 16.216 33.0971 16.216Z" fill="white"/>
<rect x="14.2598" y="24" width="9.9985" height="9.9985" transform="rotate(-45 14.2598 24)" fill="#2FC7A1"/>
</svg>
