<svg width="44" height="32" viewBox="0 0 44 32" fill="none" xmlns="http://www.w3.org/2000/svg">
<rect width="43.73" height="24" fill="#2FC7A1"/>
<path d="M11.5385 6.5C12.2852 6.5 12.9058 6.63067 13.4005 6.892C13.9045 7.15333 14.3012 7.51267 14.5905 7.97C14.8892 8.418 15.0992 8.936 15.2205 9.524C15.3512 10.112 15.4165 10.728 15.4165 11.372V12.044C15.4165 13.6587 15.0152 14.9047 14.2125 15.782C13.4098 16.65 12.2478 17.084 10.7265 17.084C10.3625 17.084 10.0545 17.0747 9.80248 17.056C9.55048 17.0373 9.27515 17.0093 8.97648 16.972V15.824C9.28448 15.8613 9.56915 15.8893 9.83048 15.908C10.0918 15.9267 10.4092 15.936 10.7825 15.936C11.6318 15.936 12.3038 15.7773 12.7985 15.46C13.2932 15.1427 13.6478 14.69 13.8625 14.102C14.0772 13.5047 14.1845 12.786 14.1845 11.946V11.316L14.5205 10.07C14.5112 10.8073 14.3665 11.4187 14.0865 11.904C13.8158 12.3893 13.4378 12.7533 12.9525 12.996C12.4765 13.2387 11.9258 13.36 11.3005 13.36C10.5725 13.36 9.95648 13.2153 9.45248 12.926C8.94848 12.6273 8.56582 12.2213 8.30448 11.708C8.05248 11.1947 7.92648 10.6113 7.92648 9.958C7.92648 9.29533 8.06182 8.70267 8.33248 8.18C8.60315 7.65733 9.00448 7.24667 9.53648 6.948C10.0778 6.64933 10.7452 6.5 11.5385 6.5ZM11.5385 7.676C11.0252 7.676 10.5958 7.774 10.2505 7.97C9.90515 8.166 9.64382 8.43667 9.46648 8.782C9.29848 9.118 9.21448 9.51 9.21448 9.958C9.21448 10.406 9.29848 10.8027 9.46648 11.148C9.63448 11.4933 9.88182 11.764 10.2085 11.96C10.5445 12.1467 10.9552 12.24 11.4405 12.24C11.9165 12.24 12.3412 12.1513 12.7145 11.974C13.0972 11.7967 13.3958 11.54 13.6105 11.204C13.8252 10.8587 13.9325 10.4387 13.9325 9.944C13.9325 9.53333 13.8485 9.15533 13.6805 8.81C13.5125 8.46467 13.2512 8.18933 12.8965 7.984C12.5418 7.77867 12.0892 7.676 11.5385 7.676ZM20.613 17.252C19.8477 17.252 19.199 17.1027 18.667 16.804C18.135 16.5053 17.729 16.1087 17.449 15.614C17.1783 15.1193 17.043 14.5827 17.043 14.004H18.359C18.359 14.6387 18.5597 15.1427 18.961 15.516C19.3717 15.8893 19.9223 16.076 20.613 16.076C21.0703 16.076 21.467 15.992 21.803 15.824C22.139 15.656 22.4003 15.418 22.587 15.11C22.7737 14.7927 22.867 14.424 22.867 14.004C22.867 13.3693 22.6617 12.856 22.251 12.464C21.8497 12.072 21.3083 11.876 20.627 11.876C20.3377 11.876 20.0857 11.9133 19.871 11.988C19.6657 12.0533 19.4837 12.1373 19.325 12.24L18.653 11.036L22.559 8.18L22.419 7.928H17.449V6.78H23.679V8.642L20.445 10.994L19.465 11.036C19.6237 10.98 19.7963 10.9333 19.983 10.896C20.179 10.8587 20.4077 10.84 20.669 10.84C21.4157 10.84 22.0503 10.98 22.573 11.26C23.0957 11.54 23.4923 11.9133 23.763 12.38C24.043 12.8467 24.183 13.3553 24.183 13.906V14.102C24.183 14.6433 24.043 15.1567 23.763 15.642C23.4923 16.118 23.091 16.5053 22.559 16.804C22.0363 17.1027 21.3877 17.252 20.613 17.252ZM28.5406 17L32.4046 6.78H33.4686L29.6046 17H28.5406ZM27.7846 12.268C27.2526 12.268 26.8186 12.1467 26.4826 11.904C26.1559 11.6613 25.9133 11.3393 25.7546 10.938C25.6053 10.5367 25.5306 10.1027 25.5306 9.636V9.272C25.5306 8.768 25.6099 8.32 25.7686 7.928C25.9273 7.52667 26.1746 7.214 26.5106 6.99C26.8466 6.75667 27.2713 6.64 27.7846 6.64C28.3073 6.64 28.7319 6.75667 29.0586 6.99C29.3946 7.214 29.6419 7.52667 29.8006 7.928C29.9593 8.32 30.0386 8.768 30.0386 9.272V9.636C30.0386 10.1027 29.9593 10.5367 29.8006 10.938C29.6513 11.3393 29.4133 11.6613 29.0866 11.904C28.7599 12.1467 28.3259 12.268 27.7846 12.268ZM27.7846 11.344C28.2139 11.344 28.5313 11.19 28.7366 10.882C28.9513 10.5647 29.0586 10.0933 29.0586 9.468C29.0586 8.80533 28.9513 8.32467 28.7366 8.026C28.5219 7.718 28.2046 7.564 27.7846 7.564C27.3646 7.564 27.0473 7.718 26.8326 8.026C26.6179 8.32467 26.5106 8.80067 26.5106 9.454C26.5106 10.0793 26.6133 10.5507 26.8186 10.868C27.0333 11.1853 27.3553 11.344 27.7846 11.344ZM34.1686 17.14C33.6366 17.14 33.2026 17.0187 32.8666 16.776C32.5399 16.5333 32.2973 16.2113 32.1386 15.81C31.9893 15.4087 31.9146 14.9747 31.9146 14.508V14.144C31.9146 13.64 31.9939 13.192 32.1526 12.8C32.3113 12.3987 32.5586 12.086 32.8946 11.862C33.2306 11.6287 33.6553 11.512 34.1686 11.512C34.6913 11.512 35.1159 11.6287 35.4426 11.862C35.7786 12.086 36.0259 12.3987 36.1846 12.8C36.3433 13.192 36.4226 13.64 36.4226 14.144V14.508C36.4226 14.9747 36.3433 15.4087 36.1846 15.81C36.0353 16.2113 35.7973 16.5333 35.4706 16.776C35.1439 17.0187 34.7099 17.14 34.1686 17.14ZM34.1686 16.216C34.5979 16.216 34.9153 16.062 35.1206 15.754C35.3353 15.4367 35.4426 14.9653 35.4426 14.34C35.4426 13.6773 35.3353 13.1967 35.1206 12.898C34.9059 12.59 34.5886 12.436 34.1686 12.436C33.7486 12.436 33.4313 12.59 33.2166 12.898C33.0019 13.1967 32.8946 13.6727 32.8946 14.326C32.8946 14.9513 32.9973 15.4227 33.2026 15.74C33.4173 16.0573 33.7393 16.216 34.1686 16.216Z" fill="white"/>
<rect x="14.79" y="24" width="9.9985" height="9.9985" transform="rotate(-45 14.79 24)" fill="#2FC7A1"/>
</svg>
