<svg width="15" height="15" viewBox="0 0 15 15" fill="none" xmlns="http://www.w3.org/2000/svg">
<path d="M14.858 14.1839L10.9851 10.3731C11.9993 9.27123 12.6225 7.81402 12.6225 6.21052C12.622 2.78032 9.79656 0 6.31098 0C2.8254 0 0 2.78032 0 6.21052C0 9.64071 2.8254 12.421 6.31098 12.421C7.81699 12.421 9.19827 11.9001 10.2833 11.0341L14.1711 14.86C14.3605 15.0467 14.6681 15.0467 14.8575 14.86C15.0474 14.6734 15.0474 14.3706 14.858 14.1839ZM6.31098 11.4655C3.3618 11.4655 0.971033 9.11277 0.971033 6.21052C0.971033 3.30826 3.3618 0.955524 6.31098 0.955524C9.26019 0.955524 11.6509 3.30826 11.6509 6.21052C11.6509 9.11277 9.26019 11.4655 6.31098 11.4655Z" fill="white"/>
</svg>
