<svg width="15" height="15" viewBox="0 0 15 15" fill="none" xmlns="http://www.w3.org/2000/svg">
<path d="M7.47074 3.61914C9.56254 3.61914 11.2891 5.3457 11.2891 7.4375C11.2891 9.5625 9.56254 11.2559 7.47074 11.2559C5.34574 11.2559 3.65238 9.5625 3.65238 7.4375C3.65238 5.3457 5.34574 3.61914 7.47074 3.61914ZM7.47074 9.92773C8.83207 9.92773 9.92778 8.83203 9.92778 7.4375C9.92778 6.07617 8.83207 4.98047 7.47074 4.98047C6.07621 4.98047 4.98051 6.07617 4.98051 7.4375C4.98051 8.83203 6.10942 9.92773 7.47074 9.92773ZM12.3184 3.48633C12.3184 3.98438 11.92 4.38281 11.4219 4.38281C10.9239 4.38281 10.5254 3.98438 10.5254 3.48633C10.5254 2.98828 10.9239 2.58984 11.4219 2.58984C11.92 2.58984 12.3184 2.98828 12.3184 3.48633ZM14.8418 4.38281C14.9082 5.61133 14.9082 9.29688 14.8418 10.5254C14.7754 11.7207 14.5098 12.75 13.6465 13.6465C12.7832 14.5098 11.7207 14.7754 10.5254 14.8418C9.29692 14.9082 5.61137 14.9082 4.38285 14.8418C3.18754 14.7754 2.15824 14.5098 1.26176 13.6465C0.398479 12.75 0.132854 11.7207 0.0664473 10.5254C4.1008e-05 9.29688 4.1008e-05 5.61133 0.0664473 4.38281C0.132854 3.1875 0.398479 2.125 1.26176 1.26172C2.15824 0.398438 3.18754 0.132812 4.38285 0.0664062C5.61137 0 9.29692 0 10.5254 0.0664062C11.7207 0.132812 12.7832 0.398438 13.6465 1.26172C14.5098 2.125 14.7754 3.1875 14.8418 4.38281ZM13.2481 11.8203C13.6465 10.8574 13.5469 8.5332 13.5469 7.4375C13.5469 6.375 13.6465 4.05078 13.2481 3.05469C12.9825 2.42383 12.4844 1.89258 11.8536 1.66016C10.8575 1.26172 8.53324 1.36133 7.47074 1.36133C6.37504 1.36133 4.05082 1.26172 3.08793 1.66016C2.42387 1.92578 1.92582 2.42383 1.6602 3.05469C1.26176 4.05078 1.36137 6.375 1.36137 7.4375C1.36137 8.5332 1.26176 10.8574 1.6602 11.8203C1.92582 12.4844 2.42387 12.9824 3.08793 13.248C4.05082 13.6465 6.37504 13.5469 7.47074 13.5469C8.53324 13.5469 10.8575 13.6465 11.8536 13.248C12.4844 12.9824 13.0157 12.4844 13.2481 11.8203Z" fill="#2FC7A1"/>
<a href="https://www.figma.com/design/Nx4sNsAeWJfmVVOXuDSmxJ/Untitled?node-id=2-828">
<rect fill="black" fill-opacity="0" x="0.18925" y="-1.275" width="14.875" height="19.55"/>
</a>
</svg>
