<svg width="48" height="46" viewBox="0 0 48 46" fill="none" xmlns="http://www.w3.org/2000/svg">
<path d="M20.32 37.6001C21.1733 37.6001 21.8933 37.2801 22.48 36.6401C23.0667 36.0001 23.36 35.2268 23.36 34.3201C23.36 33.4135 23.0667 32.6668 22.48 32.0801C21.8933 31.4935 21.1467 31.2001 20.24 31.2001C19.3333 31.2001 18.5867 31.4935 18 32.0801C17.4133 32.6668 17.12 33.4135 17.12 34.3201C17.12 35.2268 17.4133 36.0001 18 36.6401C18.5867 37.2801 19.36 37.6001 20.32 37.6001ZM20.32 32.4801C20.7467 32.4801 21.1467 32.6668 21.52 33.0401C21.8933 33.4135 22.08 33.8401 22.08 34.3201C22.08 34.8001 21.8933 35.2268 21.52 35.6001C21.1467 35.9735 20.72 36.1601 20.24 36.1601C19.76 36.1601 19.3333 35.9735 18.96 35.6001C18.5867 35.2268 18.4 34.8001 18.4 34.3201C18.4 33.8401 18.5867 33.4135 18.96 33.0401C19.3333 32.6668 19.7867 32.4801 20.32 32.4801ZM14.88 40.1601V44.4801C14.88 44.6935 14.96 44.8535 15.12 44.9601C15.28 45.0668 15.4133 45.1201 15.52 45.1201H24.96C25.0667 45.1201 25.2 45.0668 25.36 44.9601C25.52 44.8535 25.6 44.6935 25.6 44.4801V40.1601C25.6 39.3068 25.3067 38.5868 24.72 38.0001C24.1333 37.4135 23.4667 37.1735 22.72 37.2801C22.4 37.1735 22.1867 37.2268 22.08 37.4401C21.9733 37.6535 21.8133 37.8135 21.6 37.9201C21.0667 38.3468 20.5067 38.5068 19.92 38.4001C19.3333 38.2935 18.8267 37.9735 18.4 37.4401C18.2933 37.2268 18.08 37.1735 17.76 37.2801C17.0133 37.1735 16.3467 37.4135 15.76 38.0001C15.1733 38.5868 14.88 39.3068 14.88 40.1601ZM16.32 40.1601C16.32 39.7335 16.4267 39.3868 16.64 39.1201C16.8533 38.8535 17.1733 38.6668 17.6 38.5601C18.24 39.3068 19.12 39.6801 20.24 39.6801C21.36 39.6801 22.24 39.3068 22.88 38.5601C23.3067 38.6668 23.6267 38.8535 23.84 39.1201C24.0533 39.3868 24.16 39.7335 24.16 40.1601V43.8401H16.32V40.1601ZM31.52 37.6001C32.3733 37.6001 33.12 37.2801 33.76 36.6401C34.4 36.0001 34.72 35.2268 34.72 34.3201C34.72 33.4135 34.4 32.6668 33.76 32.0801C33.12 31.4935 32.3467 31.2001 31.44 31.2001C30.5333 31.2001 29.7867 31.4935 29.2 32.0801C28.6133 32.6668 28.32 33.4135 28.32 34.3201C28.32 35.2268 28.64 36.0001 29.28 36.6401C29.92 37.2801 30.6667 37.6001 31.52 37.6001ZM31.52 32.4801C31.9467 32.4801 32.3467 32.6668 32.72 33.0401C33.0933 33.4135 33.28 33.8401 33.28 34.3201C33.28 34.8001 33.0933 35.2268 32.72 35.6001C32.3467 35.9735 31.92 36.1601 31.44 36.1601C30.96 36.1601 30.5333 35.9735 30.16 35.6001C29.7867 35.2268 29.6 34.8001 29.6 34.3201C29.6 33.8401 29.7867 33.4135 30.16 33.0401C30.5333 32.6668 30.9867 32.4801 31.52 32.4801ZM26.24 40.1601V44.4801C26.24 44.6935 26.2933 44.8535 26.4 44.9601C26.5067 45.0668 26.6667 45.1201 26.88 45.1201H36.16C36.3733 45.1201 36.5333 45.0668 36.64 44.9601C36.7467 44.8535 36.8 44.6935 36.8 44.4801V40.1601C36.8 39.3068 36.5067 38.6135 35.92 38.0801C35.3333 37.5468 34.6667 37.2801 33.92 37.2801C33.7067 37.1735 33.52 37.2268 33.36 37.4401C33.2 37.6535 33.0133 37.8135 32.8 37.9201C32.2667 38.3468 31.7067 38.5068 31.12 38.4001C30.5333 38.2935 30.0267 37.9735 29.6 37.4401C29.4933 37.2268 29.3333 37.1735 29.12 37.2801C28.2667 37.1735 27.5733 37.4135 27.04 38.0001C26.5067 38.5868 26.24 39.3068 26.24 40.1601ZM27.52 40.1601C27.52 39.7335 27.6267 39.3868 27.84 39.1201C28.0533 38.8535 28.3733 38.6668 28.8 38.5601C29.44 39.2001 30.2133 39.5735 31.12 39.6801C32.0267 39.7868 32.8533 39.5735 33.6 39.0401L34.24 38.5601C34.56 38.6668 34.8533 38.8535 35.12 39.1201C35.3867 39.3868 35.52 39.7335 35.52 40.1601V43.8401H27.52V40.1601ZM42.72 37.6001C43.5733 37.6001 44.32 37.2801 44.96 36.6401C45.6 36.0001 45.92 35.2268 45.92 34.3201C45.92 33.4135 45.6 32.6668 44.96 32.0801C44.32 31.4935 43.5733 31.2001 42.72 31.2001C41.8667 31.2001 41.12 31.4935 40.48 32.0801C39.84 32.6668 39.52 33.4135 39.52 34.3201C39.52 35.2268 39.84 36.0001 40.48 36.6401C41.12 37.2801 41.8667 37.6001 42.72 37.6001ZM42.72 32.4801C43.2533 32.4801 43.68 32.6668 44 33.0401C44.32 33.4135 44.48 33.8401 44.48 34.3201C44.48 34.8001 44.32 35.2268 44 35.6001C43.68 35.9735 43.2533 36.1601 42.72 36.1601C42.1867 36.1601 41.76 35.9735 41.44 35.6001C41.12 35.2268 40.96 34.8001 40.96 34.3201C40.96 33.8401 41.12 33.4135 41.44 33.0401C41.76 32.6668 42.1867 32.4801 42.72 32.4801ZM45.12 37.2801C44.9067 37.1735 44.72 37.2268 44.56 37.4401C44.4 37.6535 44.2133 37.8135 44 37.9201C43.5733 38.3468 43.04 38.5068 42.4 38.4001C41.76 38.2935 41.2267 37.9735 40.8 37.4401C40.6933 37.2268 40.5333 37.1735 40.32 37.2801C39.4667 37.2801 38.7467 37.5468 38.16 38.0801C37.5733 38.6135 37.28 39.3068 37.28 40.1601V44.4801C37.28 44.6935 37.36 44.8535 37.52 44.9601C37.68 45.0668 37.8667 45.1201 38.08 45.1201H47.36C47.5733 45.1201 47.7333 45.0668 47.84 44.9601C47.9467 44.8535 48 44.6935 48 44.4801V40.1601C48 39.3068 47.7067 38.5868 47.12 38.0001C46.5333 37.4135 45.8667 37.1735 45.12 37.2801ZM45.44 38.5601C45.76 38.6668 46.0267 38.8535 46.24 39.1201C46.4533 39.3868 46.56 39.7335 46.56 40.1601V43.8401H38.72V40.1601C38.72 39.7335 38.8267 39.3868 39.04 39.1201C39.2533 38.8535 39.5733 38.6668 40 38.5601C40.7467 39.3068 41.6533 39.6801 42.72 39.6801C43.7867 39.6801 44.6933 39.3068 45.44 38.5601ZM8.48 9.12012C9.54667 9.12012 10.4533 8.72012 11.2 7.92012C11.9467 7.12012 12.32 6.18678 12.32 5.12012V3.84012C12.32 2.77345 11.9467 1.86678 11.2 1.12012C10.4533 0.373451 9.54667 0.000118256 8.48 0.000118256C7.41333 0.000118256 6.50667 0.373451 5.76 1.12012C5.01333 1.86678 4.64 2.77345 4.64 3.84012V5.12012C4.64 6.18678 5.01333 7.12012 5.76 7.92012C6.50667 8.72012 7.41333 9.12012 8.48 9.12012ZM5.92 3.84012C5.92 3.20012 6.18667 2.64012 6.72 2.16012C7.25333 1.68012 7.86667 1.44012 8.56 1.44012C9.25333 1.44012 9.84 1.68012 10.32 2.16012C10.8 2.64012 11.04 3.20012 11.04 3.84012V5.12012C11.04 5.86678 10.8 6.48012 10.32 6.96012C9.84 7.44012 9.25333 7.68012 8.56 7.68012C7.86667 7.68012 7.25333 7.44012 6.72 6.96012C6.18667 6.48012 5.92 5.86678 5.92 5.12012V3.84012ZM0 23.2001C0 23.9468 0.24 24.5335 0.72 24.9601C1.2 25.3868 1.76 25.6001 2.4 25.6001C2.93333 25.6001 3.36 25.4935 3.68 25.2801L4.16 40.0001C4.16 40.5335 4.32 41.0135 4.64 41.4401C4.96 41.8668 5.36 42.1601 5.84 42.3201C6.32 42.4801 6.8 42.5068 7.28 42.4001C7.76 42.2935 8.21333 42.0268 8.64 41.6001C8.96 42.0268 9.38667 42.2935 9.92 42.4001C10.4533 42.5068 10.96 42.4801 11.44 42.3201C11.92 42.1601 12.32 41.8668 12.64 41.4401C12.96 41.0135 13.12 40.5335 13.12 40.0001L13.6 25.4401C13.92 25.6535 14.2933 25.7601 14.72 25.7601C15.36 25.7601 15.92 25.5201 16.4 25.0401C16.88 24.5601 17.12 23.9468 17.12 23.2001V13.4401C17.2267 12.3735 16.9333 11.4135 16.24 10.5601C15.5467 9.70678 14.6667 9.22678 13.6 9.12012H11.52C11.3067 9.12012 11.1467 9.17345 11.04 9.28012L8.64 11.5201L6.24 9.28012C6.13333 9.17345 5.97333 9.12012 5.76 9.12012H4C2.93333 9.12012 2 9.49345 1.2 10.2401C0.4 10.9868 0 11.9468 0 13.1201V13.4401V23.2001ZM10.56 41.1201C10.24 41.1201 9.94667 41.0135 9.68 40.8001C9.41333 40.5868 9.28 40.3201 9.28 40.0001V25.4401C9.28 25.3335 9.22667 25.2001 9.12 25.0401C9.01333 24.8801 8.85333 24.8001 8.64 24.8001C8.42667 24.8001 8.26667 24.8801 8.16 25.0401C8.05333 25.2001 8 25.3335 8 25.4401V40.0001C8 40.3201 7.86667 40.5868 7.6 40.8001C7.33333 41.0135 7.04 41.1201 6.72 41.1201C6.4 41.1201 6.10667 41.0135 5.84 40.8001C5.57333 40.5868 5.44 40.3201 5.44 40.0001L4.96 23.0401H12.16L11.68 40.0001C11.68 40.3201 11.5733 40.5868 11.36 40.8001C11.1467 41.0135 10.88 41.1201 10.56 41.1201ZM2.08 11.2001C2.61333 10.6668 3.25333 10.4001 4 10.4001H5.44L8.16 12.9601L11.84 10.4001H13.28C14.0267 10.4001 14.6667 10.7201 15.2 11.3601C15.7333 12.0001 15.9467 12.6935 15.84 13.4401V23.2001C15.84 23.5201 15.7333 23.7868 15.52 24.0001C15.3067 24.2135 15.04 24.3201 14.72 24.3201C14.4 24.3201 14.1333 24.2135 13.92 24.0001C13.7067 23.7868 13.6 23.5201 13.6 23.2001V16.6401C13.6 16.4268 13.5467 16.2668 13.44 16.1601C13.3333 16.0535 13.1733 16.0001 12.96 16.0001C12.7467 16.0001 12.5867 16.0535 12.48 16.1601C12.3733 16.2668 12.32 16.4268 12.32 16.6401V21.7601H4.96V16.6401C4.96 16.4268 4.88 16.2668 4.72 16.1601C4.56 16.0535 4.4 16.0001 4.24 16.0001C4.08 16.0001 3.92 16.0535 3.76 16.1601C3.6 16.2668 3.52 16.4268 3.52 16.6401V23.2001C3.52 23.5201 3.41333 23.7868 3.2 24.0001C2.98667 24.2135 2.72 24.3201 2.4 24.3201C2.18667 24.3201 1.97333 24.2135 1.76 24.0001C1.54667 23.7868 1.44 23.5201 1.44 23.2001V13.1201C1.33333 12.3735 1.54667 11.7335 2.08 11.2001ZM18.56 6.24012H19.68V20.3201C19.68 21.0668 19.9467 21.7068 20.48 22.2401C21.0133 22.7735 21.6533 23.0401 22.4 23.0401H31.04L26.4 27.2001C26.08 27.4135 25.9733 27.6801 26.08 28.0001C26.1867 28.3201 26.3733 28.4801 26.64 28.4801C26.9067 28.4801 27.0933 28.4268 27.2 28.3201L32.48 23.5201L37.76 28.3201C37.8667 28.4268 38.0267 28.4801 38.24 28.4801C38.4533 28.4801 38.6133 28.4001 38.72 28.2401C38.8267 28.0801 38.88 27.8935 38.88 27.6801C38.88 27.4668 38.8267 27.3068 38.72 27.2001L33.92 23.0401H42.56C43.3067 23.0401 43.9467 22.7735 44.48 22.2401C45.0133 21.7068 45.28 21.0668 45.28 20.3201V6.24012H46.4C46.6133 6.24012 46.7733 6.16012 46.88 6.00012C46.9867 5.84012 47.04 5.70678 47.04 5.60012V0.800117C47.04 0.586784 46.9867 0.426785 46.88 0.320118C46.7733 0.213451 46.6133 0.160118 46.4 0.160118H18.56C18.4533 0.160118 18.32 0.213451 18.16 0.320118C18 0.426785 17.92 0.586784 17.92 0.800117V5.60012C17.92 5.70678 18 5.84012 18.16 6.00012C18.32 6.16012 18.4533 6.24012 18.56 6.24012ZM43.84 20.3201C43.84 20.6401 43.7067 20.9335 43.44 21.2001C43.1733 21.4668 42.88 21.6001 42.56 21.6001H22.4C22.08 21.6001 21.7867 21.4668 21.52 21.2001C21.2533 20.9335 21.12 20.6401 21.12 20.3201V6.24012H43.84V20.3201ZM19.36 1.60012H45.76V4.80012H19.36V1.60012ZM24.16 11.6801H36.8C37.0133 11.6801 37.2 11.6001 37.36 11.4401C37.52 11.2801 37.6 11.1201 37.6 10.9601C37.6 10.8001 37.52 10.6401 37.36 10.4801C37.2 10.3201 37.0133 10.2401 36.8 10.2401H24.16C24.0533 10.2401 23.92 10.3201 23.76 10.4801C23.6 10.6401 23.52 10.8001 23.52 10.9601C23.52 11.1201 23.6 11.2801 23.76 11.4401C23.92 11.6001 24.0533 11.6801 24.16 11.6801ZM24.16 14.4001H40.8C41.0133 14.4001 41.2 14.3201 41.36 14.1601C41.52 14.0001 41.6 13.8401 41.6 13.6801C41.6 13.5201 41.52 13.3601 41.36 13.2001C41.2 13.0401 41.0133 12.9601 40.8 12.9601H24.16C24.0533 12.9601 23.92 13.0401 23.76 13.2001C23.6 13.3601 23.52 13.5201 23.52 13.6801C23.52 13.8401 23.6 14.0001 23.76 14.1601C23.92 14.3201 24.0533 14.4001 24.16 14.4001ZM24.16 16.9601H40.8C41.0133 16.9601 41.2 16.9068 41.36 16.8001C41.52 16.6935 41.6 16.5335 41.6 16.3201C41.6 16.1068 41.52 15.9468 41.36 15.8401C41.2 15.7335 41.0133 15.6801 40.8 15.6801H24.16C24.0533 15.6801 23.92 15.7335 23.76 15.8401C23.6 15.9468 23.52 16.1068 23.52 16.3201C23.52 16.5335 23.6 16.6935 23.76 16.8001C23.92 16.9068 24.0533 16.9601 24.16 16.9601Z" fill="white"/>
</svg>
