<svg width="17" height="17" viewBox="0 0 17 17" fill="none" xmlns="http://www.w3.org/2000/svg">
<path d="M15.2402 5.17188C15.2402 5.33789 15.2402 5.4707 15.2402 5.63672C15.2402 10.252 11.7539 15.5312 5.3457 15.5312C3.35352 15.5312 1.52734 14.9668 0 13.9707C0.265625 14.0039 0.53125 14.0371 0.830078 14.0371C2.45703 14.0371 3.95117 13.4727 5.14648 12.543C3.61914 12.5098 2.32422 11.5137 1.89258 10.1191C2.125 10.1523 2.32422 10.1855 2.55664 10.1855C2.85547 10.1855 3.1875 10.1191 3.45312 10.0527C1.85938 9.7207 0.664062 8.32617 0.664062 6.63281V6.59961C1.12891 6.86523 1.69336 6.99805 2.25781 7.03125C1.29492 6.40039 0.697266 5.33789 0.697266 4.14258C0.697266 3.47852 0.863281 2.88086 1.16211 2.38281C2.88867 4.47461 5.47852 5.86914 8.36719 6.03516C8.30078 5.76953 8.26758 5.50391 8.26758 5.23828C8.26758 3.3125 9.82812 1.75195 11.7539 1.75195C12.75 1.75195 13.6465 2.15039 14.3105 2.84766C15.0742 2.68164 15.8379 2.38281 16.502 1.98438C16.2363 2.81445 15.7051 3.47852 14.9746 3.91016C15.6719 3.84375 16.3691 3.64453 16.9668 3.37891C16.502 4.07617 15.9043 4.67383 15.2402 5.17188Z" fill="white"/>
<a href="https://www.figma.com/design/Nx4sNsAeWJfmVVOXuDSmxJ?node-id=2-828">
<rect fill="black" fill-opacity="0" y="-1.275" width="17" height="19.55"/>
</a>
</svg>
